# xmcd CD database file
#
# Track frame offsets:
#	150
#	18004
#	32000
#	41073
#	59228
#	73569
#	89593
#	105991
#	119832
#	139378
#	147873
#	163148
#	179591
#
# Disc length: 2623 seconds
#
# Revision: 0
# Processed by: cddbd v1.5.1PL0 Copyright (c) Steve Scherf et al.
# Submitted via: CDex 1.51
#
DISCID=c40a3d0d
DTITLE=Emiliana Torrini - Fisherman's Woman
DYEAR=1900
DGENRE=Rhythmic Soul
TTITLE0=Nothing Brings Me Down
TTITLE1=Sunny Road
TTITLE2=Snow
TTITLE3=Lifesaver
TTITLE4=Honeymoon Child
TTITLE5=Today Has Been OK
TTITLE6=Next Time Around
TTITLE7=Heartstopper
TTITLE8=At Least It Was
TTITLE9=Fisherman's Woman
TTITLE10=Thinking Out Loud
TTITLE11=Serenade
TTITLE12=Summerbreeze
EXTD=
EXTT0=
EXTT1=
EXTT2=
EXTT3=
EXTT4=
EXTT5=
EXTT6=
EXTT7=
EXTT8=
EXTT9=
EXTT10=
EXTT11=
EXTT12=
PLAYORDER=
